<?xml version="1.0" standalone="no"?>
<!DOCTYPE svg PUBLIC "-//W3C//DTD SVG 20010904//EN"
 "http://www.w3.org/TR/2001/REC-SVG-20010904/DTD/svg10.dtd">
<svg version="1.0" xmlns="http://www.w3.org/2000/svg"
 width="330.000000pt" height="300.000000pt" viewBox="0 0 330.000000 300.000000"
 preserveAspectRatio="xMidYMid meet">

<g transform="translate(0.000000,300.000000) scale(0.100000,-0.100000)"
fill="#000000" stroke="none">
<path d="M1220 2903 c-88 -9 -98 -13 -115 -49 -13 -29 -14 -41 -5 -69 6 -20
21 -41 33 -48 17 -9 149 -12 555 -12 l534 0 24 28 c13 15 24 39 24 53 0 36
-26 80 -52 89 -23 7 -932 15 -998 8z m980 -53 c16 -9 20 -19 18 -43 -3 -30 -6
-32 -53 -39 -27 -3 -262 -6 -521 -5 -497 2 -504 3 -504 47 0 33 30 45 129 51
160 11 908 2 931 -11z"/>
<path d="M965 2649 c-66 -3 -121 -7 -123 -8 -13 -6 -32 -78 -27 -102 13 -60
38 -65 364 -73 141 -4 177 -7 190 -20 14 -15 15 -81 14 -628 l-1 -612 -22 -18
c-30 -25 -74 -23 -104 5 l-24 22 -5 530 c-4 588 -3 576 -69 608 -30 15 -44 16
-76 8 -21 -6 -47 -20 -56 -30 -23 -25 -32 -93 -17 -130 15 -35 75 -71 92 -54
8 8 2 21 -25 48 -42 42 -45 67 -11 100 33 34 72 33 86 -2 7 -17 14 -206 20
-488 11 -573 14 -620 42 -646 36 -33 90 -44 134 -28 69 27 80 56 88 246 4 93
5 373 1 623 -7 496 -5 479 -66 502 -14 5 -125 13 -246 18 -228 8 -264 15 -264
50 0 36 31 41 294 40 278 0 315 -6 350 -53 21 -28 21 -36 24 -746 l3 -718 45
-44 c41 -41 49 -44 97 -44 59 0 102 19 128 55 16 23 18 76 24 710 3 377 10
703 15 725 11 47 38 86 73 103 31 15 520 18 560 3 30 -12 39 -34 23 -56 -10
-14 -46 -18 -254 -25 -135 -5 -250 -14 -261 -20 -46 -24 -46 -22 -49 -676 l-4
-620 37 -37 c46 -46 92 -56 145 -32 72 32 67 -5 78 590 5 297 13 550 17 562
14 44 83 42 103 -2 18 -40 15 -53 -24 -92 -26 -26 -33 -38 -25 -46 8 -8 21 -6
47 8 90 48 81 165 -16 205 -26 11 -37 10 -75 -4 -25 -10 -48 -22 -51 -28 -21
-34 -27 -135 -32 -607 l-7 -525 -32 -19 c-29 -16 -35 -17 -60 -4 -15 8 -37 24
-47 36 -18 20 -18 44 -14 621 4 545 6 602 21 617 15 15 47 18 234 20 120 2
232 6 249 8 81 13 104 127 33 166 -14 7 -118 11 -308 11 -239 0 -292 -2 -317
-15 -52 -27 -74 -60 -84 -125 -6 -34 -11 -356 -13 -735 l-2 -674 -30 -26 c-42
-38 -72 -43 -111 -22 -68 36 -63 -8 -70 650 -3 330 -9 662 -13 737 -8 159 -18
179 -100 197 -59 13 -341 19 -496 10z"/>
<path d="M1040 636 c0 -180 5 -213 31 -204 10 3 17 40 24 129 l10 124 23 -66
c13 -37 32 -75 43 -85 20 -18 21 -18 35 0 7 11 26 51 41 90 l28 71 5 -130 c5
-122 6 -130 25 -130 19 0 20 7 20 185 0 183 0 185 -22 188 -26 4 -40 -20 -79
-130 -14 -40 -29 -77 -34 -81 -7 -8 -9 -5 -60 129 -28 74 -33 82 -60 86 l-30
5 0 -181z"/>
<path d="M177 790 l-27 -21 0 -149 c0 -179 5 -190 91 -198 42 -3 58 0 68 12
19 22 10 28 -48 34 -45 4 -49 7 -55 34 -10 48 -7 214 4 242 8 23 15 26 60 26
44 0 51 3 48 18 -5 28 -106 29 -141 2z"/>
<path d="M603 786 l-28 -24 0 -134 c0 -155 5 -180 40 -196 49 -22 125 -11 147
22 4 6 8 80 8 164 l0 152 -32 20 c-46 28 -100 26 -135 -4z m118 -37 c16 -31 8
-251 -10 -272 -19 -24 -58 -21 -71 4 -7 12 -12 70 -12 134 0 64 5 122 12 134
15 29 65 28 81 0z"/>
<path d="M1600 634 c0 -99 4 -185 9 -193 5 -8 16 -11 25 -8 12 5 16 20 16 56
l0 50 54 11 c78 16 91 35 91 131 0 106 -15 122 -120 127 l-75 4 0 -178z m130
121 c18 -22 18 -128 1 -149 -17 -21 -67 -21 -75 0 -9 24 -7 110 4 138 11 30
50 36 70 11z"/>
<path d="M2111 773 c-25 -88 -73 -335 -67 -341 14 -13 41 16 46 49 4 29 10 35
34 37 52 6 75 -6 92 -48 18 -45 44 -54 44 -15 0 31 -55 291 -69 328 -8 21 -17
27 -40 27 -26 0 -31 -5 -40 -37z m63 -114 c8 -40 13 -76 11 -79 -4 -7 -62 -6
-69 1 -5 5 21 136 30 151 10 15 14 5 28 -73z"/>
<path d="M2524 797 c-2 -7 -3 -91 -2 -187 3 -173 3 -175 26 -178 22 -3 22 -2
23 130 l0 133 20 -40 c10 -22 36 -80 57 -130 29 -71 42 -90 57 -90 19 0 20 8
23 179 2 169 -4 214 -25 192 -5 -4 -10 -69 -13 -144 -6 -153 -1 -154 -65 13
-19 50 -42 100 -50 113 -18 24 -43 29 -51 9z"/>
<path d="M2990 797 c0 -7 16 -60 35 -118 20 -57 41 -138 49 -179 16 -97 38
-103 48 -13 4 34 25 119 47 187 23 69 41 128 41 131 0 3 -7 5 -15 5 -17 0 -44
-51 -69 -127 -10 -29 -21 -53 -26 -53 -5 0 -14 17 -20 38 -23 69 -61 142 -76
142 -8 0 -14 -6 -14 -13z"/>
<path d="M1172 268 c-20 -20 -14 -34 25 -65 21 -18 33 -34 29 -41 -9 -15 -43
-16 -51 -2 -3 6 -11 10 -17 10 -6 0 -6 -6 2 -16 17 -19 60 -14 74 9 9 16 5 24
-29 52 -35 30 -37 35 -21 41 10 4 27 2 37 -5 23 -14 24 -8 3 13 -19 19 -36 20
-52 4z"/>
<path d="M1535 255 c-14 -13 -25 -36 -25 -50 0 -26 39 -75 60 -75 23 0 50 41
50 75 0 34 -27 75 -50 75 -6 0 -22 -11 -35 -25z m73 -38 c4 -34 -14 -67 -37
-67 -22 0 -38 18 -41 45 -4 33 -1 43 16 60 14 14 19 14 38 2 11 -8 22 -26 24
-40z"/>
<path d="M1746 264 c-23 -22 -30 -62 -18 -89 12 -25 51 -41 77 -31 21 8 20 56
-1 56 -13 0 -14 -3 -4 -15 6 -8 9 -19 5 -25 -11 -18 -44 -11 -61 15 -14 21
-14 30 -4 54 13 33 30 43 51 30 23 -15 35 -9 15 6 -25 19 -41 19 -60 -1z"/>
<path d="M1960 266 c0 -9 5 -16 10 -16 6 0 10 -13 10 -30 0 -35 -17 -41 -23
-7 -3 22 -3 22 -14 -3 -6 -14 -14 -36 -18 -50 -7 -24 -7 -24 12 -8 23 21 53
23 72 6 11 -11 13 -10 8 4 -3 9 -11 35 -17 56 -11 43 -40 78 -40 48z"/>
<path d="M2121 213 c1 -51 2 -54 9 -25 11 48 16 48 39 4 32 -62 41 -61 40 5
-1 33 -4 45 -6 28 -7 -48 -17 -48 -42 0 -13 25 -28 45 -32 45 -5 0 -9 -26 -8
-57z"/>
<path d="M1351 183 c0 -24 1 -43 3 -43 2 0 13 -3 23 -7 17 -6 17 -5 1 13 -9
10 -18 33 -21 49 -3 24 -4 22 -6 -12z"/>
</g>
</svg>
